<?xml version="1.0" encoding="utf-8"?>
<!-- Generator: Adobe Illustrator 14.0.0, SVG Export Plug-In . SVG Version: 6.00 Build 43363)  -->
<svg version="1.2" baseProfile="tiny" id="Layer_1" xmlns="http://www.w3.org/2000/svg" xmlns:xlink="http://www.w3.org/1999/xlink"
	 x="0px" y="0px" width="1024px" height="768px" viewBox="0 0 1024 768" xml:space="preserve">
<text transform="matrix(1 0 0 1 26.5 23.5)" font-family="'MyriadPro-Regular'" font-size="12">P</text>
<text transform="matrix(1 0 0 1 32.584 23.5)" font-family="'MyriadPro-Regular'" font-size="12">o</text>
<text transform="matrix(1 0 0 1 39.1719 23.5)" font-family="'MyriadPro-Regular'" font-size="12">c</text>
<text transform="matrix(1 0 0 1 44.5479 23.5)" font-family="'MyriadPro-Regular'" font-size="12">k</text>
<text transform="matrix(1 0 0 1 50.1758 23.5)" font-family="'MyriadPro-Regular'" font-size="12">e</text>
<text transform="matrix(1 0 0 1 56.188 23.5)" font-family="'MyriadPro-Regular'" font-size="12">t</text>
<text transform="matrix(1 0 0 1 60.1597 23.5)" font-family="'MyriadPro-Regular'" font-size="12"> </text>
<text transform="matrix(1 0 0 1 62.7036 23.5)" font-family="'MyriadPro-Regular'" font-size="12">D</text>
<text transform="matrix(1 0 0 1 70.6953 23.5)" font-family="'MyriadPro-Regular'" font-size="12">r</text>
<text transform="matrix(1 0 0 1 74.5596 23.5)" font-family="'MyriadPro-Regular'" font-size="12">a</text>
<text transform="matrix(1 0 0 1 80.3433 23.5)" font-family="'MyriadPro-Regular'" font-size="12">g</text>
<text transform="matrix(1 0 0 1 87.0513 23.5)" font-family="'MyriadPro-Regular'" font-size="12">o</text>
<text transform="matrix(1 0 0 1 93.6392 23.5)" font-family="'MyriadPro-Regular'" font-size="12">n</text>
<text transform="matrix(1 0 0 1 100.2993 23.5)" font-family="'MyriadPro-Regular'" font-size="12"> </text>
<text transform="matrix(1 0 0 1 102.8433 23.5)" font-family="'MyriadPro-Regular'" font-size="12">-</text>
<text transform="matrix(1 0 0 1 106.5269 23.5)" font-family="'MyriadPro-Regular'" font-size="12"> </text>
<text transform="matrix(1 0 0 1 109.0708 23.5)" font-family="'MyriadPro-Regular'" font-size="12">Z</text>
<text transform="matrix(1 0 0 1 115.563 23.5)" font-family="'MyriadPro-Regular'" font-size="12">e</text>
<text transform="matrix(1 0 0 1 121.5747 23.5)" font-family="'MyriadPro-Regular'" font-size="12">u</text>
<text transform="matrix(1 0 0 1 128.1865 23.5)" font-family="'MyriadPro-Regular'" font-size="12">s</text>
<text transform="matrix(1 0 0 1 132.9385 23.5)" font-family="'MyriadPro-Regular'" font-size="12">:</text>
<text transform="matrix(1 0 0 1 135.4224 23.5)" font-family="'MyriadPro-Regular'" font-size="12"> </text>
<text transform="matrix(1 0 0 1 137.9663 23.5)" font-family="'MyriadPro-Regular'" font-size="12">C</text>
<text transform="matrix(1 0 0 1 144.8901 23.5)" font-family="'MyriadPro-Regular'" font-size="12">r</text>
<text transform="matrix(1 0 0 1 148.8623 23.5)" font-family="'MyriadPro-Regular'" font-size="12">i</text>
<text transform="matrix(1 0 0 1 151.6699 23.5)" font-family="'MyriadPro-Regular'" font-size="12">a</text>
<text transform="matrix(1 0 0 1 157.4541 23.5)" font-family="'MyriadPro-Regular'" font-size="12">d</text>
<text transform="matrix(1 0 0 1 164.2222 23.5)" font-family="'MyriadPro-Regular'" font-size="12">o</text>
<text transform="matrix(1 0 0 1 170.8101 23.5)" font-family="'MyriadPro-Regular'" font-size="12">r</text>
<text transform="matrix(1 0 0 1 174.7339 23.5)" font-family="'MyriadPro-Regular'" font-size="12"> </text>
<text transform="matrix(1 0 0 1 177.2778 23.5)" font-family="'MyriadPro-Regular'" font-size="12">d</text>
<text transform="matrix(1 0 0 1 184.0459 23.5)" font-family="'MyriadPro-Regular'" font-size="12">e</text>
<text transform="matrix(1 0 0 1 190.0576 23.5)" font-family="'MyriadPro-Regular'" font-size="12"> </text>
<text transform="matrix(1 0 0 1 192.6016 23.5)" font-family="'MyriadPro-Regular'" font-size="12">P</text>
<text transform="matrix(1 0 0 1 198.6855 23.5)" font-family="'MyriadPro-Regular'" font-size="12">e</text>
<text transform="matrix(1 0 0 1 204.6973 23.5)" font-family="'MyriadPro-Regular'" font-size="12">r</text>
<text transform="matrix(1 0 0 1 208.6216 23.5)" font-family="'MyriadPro-Regular'" font-size="12">s</text>
<text transform="matrix(1 0 0 1 213.3735 23.5)" font-family="'MyriadPro-Regular'" font-size="12">o</text>
<text transform="matrix(1 0 0 1 219.9614 23.5)" font-family="'MyriadPro-Regular'" font-size="12">n</text>
<text transform="matrix(1 0 0 1 226.6211 23.5)" font-family="'MyriadPro-Regular'" font-size="12">a</text>
<text transform="matrix(1 0 0 1 232.4053 23.5)" font-family="'MyriadPro-Regular'" font-size="12">g</text>
<text transform="matrix(1 0 0 1 239.1133 23.5)" font-family="'MyriadPro-Regular'" font-size="12">e</text>
<text transform="matrix(1 0 0 1 245.125 23.5)" font-family="'MyriadPro-Regular'" font-size="12">n</text>
<text transform="matrix(1 0 0 1 251.7852 23.5)" font-family="'MyriadPro-Regular'" font-size="12">s</text>
<rect x="26.5" y="42.5" fill="none" stroke="#000000" width="230.037" height="212.5"/>
<g>
	<path d="M31.892,58.991c6.586-7.685,13.897-10.517,23.972-9.674c7.764,0.649,15.304,2.398,17.171,10.941
		c0.129,0.593,2.068,0.107,1.932-0.518C72.684,49.298,61.633,48.327,52.57,48.097c-9.3-0.236-16.542,4.005-22.461,10.912
		C29.6,59.603,31.523,59.421,31.892,58.991L31.892,58.991z"/>
</g>
<g>
	<path d="M78.935,61.596c4.918-2.184,9.074-6.245,14.528-7.106c4.903-0.774,10.014,0.091,14.958-0.256
		c8.764-0.617,16.337-1.522,20.113,8.025c0.355,0.899,2.277,0.356,1.932-0.518c-3.446-8.715-9.502-9.802-18.127-9.215
		c-6.237,0.425-12.505-0.06-18.718,0.497c-5.834,0.522-10.411,5.097-15.556,7.381C76.858,60.94,77.928,62.043,78.935,61.596
		L78.935,61.596z"/>
</g>
<g>
	<path d="M135.58,61.213c2.276-1.245,3.798-2.929,5.503-4.879c3.895-4.454,10.853-5.165,16.49-5.428
		c7.682-0.359,13.328,1.854,18.024,7.95c0.344,0.447,2.202-0.197,1.807-0.711c-5.446-7.069-11.943-8.519-20.508-8.119
		c-3.596,0.168-7.772,0.745-11.164,2.032c-4.897,1.859-6.878,6.305-11.312,8.729C133.283,61.41,135.036,61.51,135.58,61.213
		L135.58,61.213z"/>
</g>
<g>
	<path d="M28.144,62.121c35.062,0,70.123,0,105.185,0c34.833,0,69.997,1.084,104.562-4.005c0.991-0.146,1.545-1.428,0.22-1.232
		c-34.408,5.065-69.393,3.995-104.069,3.995c-35.062,0-70.123,0-105.185,0C28.038,60.879,26.836,62.121,28.144,62.121L28.144,62.121
		z"/>
</g>
<text transform="matrix(1 0 0 1 34.5 83.5)" font-family="'MyriadPro-Regular'" font-size="12">H</text>
<text transform="matrix(1 0 0 1 42.4438 83.5)" font-family="'MyriadPro-Regular'" font-size="12">i</text>
<text transform="matrix(1 0 0 1 45.252 83.5)" font-family="'MyriadPro-Regular'" font-size="12">s</text>
<text transform="matrix(1 0 0 1 50.0039 83.5)" font-family="'MyriadPro-Regular'" font-size="12">t</text>
<text transform="matrix(1 0 0 1 53.9038 83.5)" font-family="'MyriadPro-Regular'" font-size="12">ó</text>
<text transform="matrix(1 0 0 1 60.4917 83.5)" font-family="'MyriadPro-Regular'" font-size="12">r</text>
<text transform="matrix(1 0 0 1 64.4634 83.5)" font-family="'MyriadPro-Regular'" font-size="12">i</text>
<text transform="matrix(1 0 0 1 67.2715 83.5)" font-family="'MyriadPro-Regular'" font-size="12">a</text>
<line fill="none" stroke="#000000" x1="141.519" y1="73.456" x2="141.519" y2="243.5"/>
<text transform="matrix(1 0 0 1 153.5 81)" font-family="'MyriadPro-Regular'" font-size="12">C</text>
<text transform="matrix(1 0 0 1 160.376 81)" font-family="'MyriadPro-Regular'" font-size="12">a</text>
<text transform="matrix(1 0 0 1 166.1602 81)" font-family="'MyriadPro-Regular'" font-size="12">r</text>
<text transform="matrix(1 0 0 1 170.0239 81)" font-family="'MyriadPro-Regular'" font-size="12">a</text>
<text transform="matrix(1 0 0 1 175.8081 81)" font-family="'MyriadPro-Regular'" font-size="12">c</text>
<text transform="matrix(1 0 0 1 181.3398 81)" font-family="'MyriadPro-Regular'" font-size="12">t</text>
<text transform="matrix(1 0 0 1 185.2397 81)" font-family="'MyriadPro-Regular'" font-size="12">e</text>
<text transform="matrix(1 0 0 1 191.2515 81)" font-family="'MyriadPro-Regular'" font-size="12">r</text>
<text transform="matrix(1 0 0 1 195.2236 81)" font-family="'MyriadPro-Regular'" font-size="12">í</text>
<text transform="matrix(1 0 0 1 198.0313 81)" font-family="'MyriadPro-Regular'" font-size="12">s</text>
<text transform="matrix(1 0 0 1 202.7832 81)" font-family="'MyriadPro-Regular'" font-size="12">t</text>
<text transform="matrix(1 0 0 1 206.7554 81)" font-family="'MyriadPro-Regular'" font-size="12">i</text>
<text transform="matrix(1 0 0 1 209.5635 81)" font-family="'MyriadPro-Regular'" font-size="12">c</text>
<text transform="matrix(1 0 0 1 214.9395 81)" font-family="'MyriadPro-Regular'" font-size="12">a</text>
<text transform="matrix(1 0 0 1 220.7231 81)" font-family="'MyriadPro-Regular'" font-size="12">s</text>
<text transform="matrix(1 0 0 1 34.5 96.75)" font-family="'MyriadPro-Regular'" font-size="6">Nome</text>
<text transform="matrix(1 0 0 1 34.5 115.25)" font-family="'MyriadPro-Regular'" font-size="6">D</text>
<text transform="matrix(1 0 0 1 38.52 115.25)" font-family="'MyriadPro-Regular'" font-size="6">e</text>
<text transform="matrix(1 0 0 1 41.5259 115.25)" font-family="'MyriadPro-Regular'" font-size="6">s</text>
<text transform="matrix(1 0 0 1 43.9019 115.25)" font-family="'MyriadPro-Regular'" font-size="6">c</text>
<text transform="matrix(1 0 0 1 46.5898 115.25)" font-family="'MyriadPro-Regular'" font-size="6">r</text>
<text transform="matrix(1 0 0 1 48.5757 115.25)" font-family="'MyriadPro-Regular'" font-size="6">i</text>
<text transform="matrix(1 0 0 1 49.9795 115.25)" font-family="'MyriadPro-Regular'" font-size="6">ç</text>
<text transform="matrix(1 0 0 1 52.6616 115.25)" font-family="'MyriadPro-Regular'" font-size="6">ã</text>
<text transform="matrix(1 0 0 1 55.5537 115.25)" font-family="'MyriadPro-Regular'" font-size="6">o</text>
<text transform="matrix(1 0 0 1 58.8477 115.25)" font-family="'MyriadPro-Regular'" font-size="6"> </text>
<text transform="matrix(1 0 0 1 60.1196 115.25)" font-family="'MyriadPro-Regular'" font-size="6">f</text>
<text transform="matrix(1 0 0 1 61.8716 115.25)" font-family="'MyriadPro-Regular'" font-size="6">í</text>
<text transform="matrix(1 0 0 1 63.2754 115.25)" font-family="'MyriadPro-Regular'" font-size="6">s</text>
<text transform="matrix(1 0 0 1 65.6514 115.25)" font-family="'MyriadPro-Regular'" font-size="6">i</text>
<text transform="matrix(1 0 0 1 67.0557 115.25)" font-family="'MyriadPro-Regular'" font-size="6">c</text>
<text transform="matrix(1 0 0 1 69.7432 115.25)" font-family="'MyriadPro-Regular'" font-size="6">a</text>
</svg>
